<?xml version='1.0' encoding='utf-8'?>
<COLLADA xmlns="http://www.collada.org/2005/11/COLLADASchema" version="1.4.1"><asset><contributor /><created>2026-09-22T00:00:00Z</created><modified>2026-09-22T00:00:00Z</modified><unit name="meter" meter="1" /><up_axis>Z_UP</up_axis></asset><library_materials><material id="redmetal" name="Red Metal"><instance_effect url="#redmetal-effect" /></material></library_materials><library_effects><effect id="redmetal-effect"><profile_COMMON><technique sid="common"><phong><diffuse><color>0.55 0.015 0.015 1</color></diffuse><specular><color>0.12 0.12 0.12 1</color></specular><shininess><float>35</float></shininess></phong></technique></profile_COMMON></effect></library_effects><library_geometries><geometry id="base_beam_x" name="base_beam_x"><mesh><source id="base_beam_x-positions"><float_array id="base_beam_x-positions-array" count="24">-3.80000 -0.19000 -0.20000 3.80000 -0.19000 -0.20000 3.80000 0.19000 -0.20000 -3.80000 0.19000 -0.20000 -3.80000 -0.19000 0.20000 3.80000 -0.19000 0.20000 3.80000 0.19000 0.20000 -3.80000 0.19000 0.20000</float_array><technique_common><accessor source="#base_beam_x-positions-array" count="8" stride="3"><param name="X" type="float" /><param name="Y" type="float" /><param name="Z" type="float" /></accessor></technique_common></source><source id="base_beam_x-normals"><float_array id="base_beam_x-normals-array" count="36">0.00000 0.00000 1.00000 0.00000 0.00000 1.00000 0.00000 0.00000 -1.00000 0.00000 0.00000 -1.00000 0.00000 1.00000 0.00000 0.00000 1.00000 0.00000 -1.00000 0.00000 0.00000 -1.00000 0.00000 0.00000 0.00000 -1.00000 0.00000 0.00000 -1.00000 0.00000 1.00000 0.00000 -0.00000 1.00000 0.00000 0.00000</float_array><technique_common><accessor source="#base_beam_x-normals-array" count="12" stride="3"><param name="X" type="float" /><param name="Y" type="float" /><param name="Z" type="float" /></accessor></technique_common></source><vertices id="base_beam_x-vertices"><input semantic="POSITION" source="#base_beam_x-positions" /></vertices><triangles material="redmetal" count="12"><input semantic="VERTEX" source="#base_beam_x-vertices" offset="0" /><input semantic="NORMAL" source="#base_beam_x-normals" offset="1" /><p>0 0 1 0 2 0 0 1 2 1 3 1 4 2 6 2 5 2 4 3 7 3 6 3 0 4 4 4 5 4 0 5 5 5 1 5 1 6 5 6 6 6 1 7 6 7 2 7 2 8 6 8 7 8 2 9 7 9 3 9 3 10 7 10 4 10 3 11 4 11 0 11</p></triangles></mesh></geometry><geometry id="base_beam_y" name="base_beam_y"><mesh><source id="base_beam_y-positions"><float_array id="base_beam_y-positions-array" count="24">-0.19000 -1.90000 -0.20000 0.19000 -1.90000 -0.20000 0.19000 1.90000 -0.20000 -0.19000 1.90000 -0.20000 -0.19000 -1.90000 0.20000 0.19000 -1.90000 0.20000 0.19000 1.90000 0.20000 -0.19000 1.90000 0.20000</float_array><technique_common><accessor source="#base_beam_y-positions-array" count="8" stride="3"><param name="X" type="float" /><param name="Y" type="float" /><param name="Z" type="float" /></accessor></technique_common></source><source id="base_beam_y-normals"><float_array id="base_beam_y-normals-array" count="36">0.00000 0.00000 1.00000 0.00000 0.00000 1.00000 0.00000 0.00000 -1.00000 0.00000 0.00000 -1.00000 0.00000 1.00000 0.00000 0.00000 1.00000 0.00000 -1.00000 0.00000 0.00000 -1.00000 0.00000 0.00000 0.00000 -1.00000 0.00000 0.00000 -1.00000 0.00000 1.00000 0.00000 -0.00000 1.00000 0.00000 0.00000</float_array><technique_common><accessor source="#base_beam_y-normals-array" count="12" stride="3"><param name="X" type="float" /><param name="Y" type="float" /><param name="Z" type="float" /></accessor></technique_common></source><vertices id="base_beam_y-vertices"><input semantic="POSITION" source="#base_beam_y-positions" /></vertices><triangles material="redmetal" count="12"><input semantic="VERTEX" source="#base_beam_y-vertices" offset="0" /><input semantic="NORMAL" source="#base_beam_y-normals" offset="1" /><p>0 0 1 0 2 0 0 1 2 1 3 1 4 2 6 2 5 2 4 3 7 3 6 3 0 4 4 4 5 4 0 5 5 5 1 5 1 6 5 6 6 6 1 7 6 7 2 7 2 8 6 8 7 8 2 9 7 9 3 9 3 10 7 10 4 10 3 11 4 11 0 11</p></triangles></mesh></geometry><geometry id="crossbar" name="crossbar"><mesh><source id="crossbar-positions"><float_array id="crossbar-positions-array" count="24">-0.19000 -1.90000 -0.20000 0.19000 -1.90000 -0.20000 0.19000 1.90000 -0.20000 -0.19000 1.90000 -0.20000 -0.19000 -1.90000 0.20000 0.19000 -1.90000 0.20000 0.19000 1.90000 0.20000 -0.19000 1.90000 0.20000</float_array><technique_common><accessor source="#crossbar-positions-array" count="8" stride="3"><param name="X" type="float" /><param name="Y" type="float" /><param name="Z" type="float" /></accessor></technique_common></source><source id="crossbar-normals"><float_array id="crossbar-normals-array" count="36">0.00000 0.00000 1.00000 0.00000 0.00000 1.00000 0.00000 0.00000 -1.00000 0.00000 0.00000 -1.00000 0.00000 1.00000 0.00000 0.00000 1.00000 0.00000 -1.00000 0.00000 0.00000 -1.00000 0.00000 0.00000 0.00000 -1.00000 0.00000 0.00000 -1.00000 0.00000 1.00000 0.00000 -0.00000 1.00000 0.00000 0.00000</float_array><technique_common><accessor source="#crossbar-normals-array" count="12" stride="3"><param name="X" type="float" /><param name="Y" type="float" /><param name="Z" type="float" /></accessor></technique_common></source><vertices id="crossbar-vertices"><input semantic="POSITION" source="#crossbar-positions" /></vertices><triangles material="redmetal" count="12"><input semantic="VERTEX" source="#crossbar-vertices" offset="0" /><input semantic="NORMAL" source="#crossbar-normals" offset="1" /><p>0 0 1 0 2 0 0 1 2 1 3 1 4 2 6 2 5 2 4 3 7 3 6 3 0 4 4 4 5 4 0 5 5 5 1 5 1 6 5 6 6 6 1 7 6 7 2 7 2 8 6 8 7 8 2 9 7 9 3 9 3 10 7 10 4 10 3 11 4 11 0 11</p></triangles></mesh></geometry><geometry id="wheel" name="wheel"><mesh><source id="wheel-positions"><float_array id="wheel-positions-array" count="72">0.20000 -0.27500 0.00000 0.17321 -0.27500 0.10000 0.10000 -0.27500 0.17321 0.00000 -0.27500 0.20000 -0.10000 -0.27500 0.17321 -0.17321 -0.27500 0.10000 -0.20000 -0.27500 0.00000 -0.17321 -0.27500 -0.10000 -0.10000 -0.27500 -0.17321 -0.00000 -0.27500 -0.20000 0.10000 -0.27500 -0.17321 0.17321 -0.27500 -0.10000 0.20000 0.27500 0.00000 0.17321 0.27500 0.10000 0.10000 0.27500 0.17321 0.00000 0.27500 0.20000 -0.10000 0.27500 0.17321 -0.17321 0.27500 0.10000 -0.20000 0.27500 0.00000 -0.17321 0.27500 -0.10000 -0.10000 0.27500 -0.17321 -0.00000 0.27500 -0.20000 0.10000 0.27500 -0.17321 0.17321 0.27500 -0.10000</float_array><technique_common><accessor source="#wheel-positions-array" count="24" stride="3"><param name="X" type="float" /><param name="Y" type="float" /><param name="Z" type="float" /></accessor></technique_common></source><source id="wheel-normals"><float_array id="wheel-normals-array" count="132">0.00000 1.00000 0.00000 0.00000 -1.00000 0.00000 0.00000 1.00000 0.00000 0.00000 -1.00000 0.00000 0.00000 1.00000 0.00000 0.00000 -1.00000 0.00000 0.00000 1.00000 0.00000 0.00000 -1.00000 0.00000 0.00000 1.00000 0.00000 0.00000 -1.00000 0.00000 0.00000 1.00000 0.00000 -0.00000 -1.00000 0.00000 0.00000 1.00000 0.00000 0.00000 -1.00000 0.00000 0.00000 1.00000 0.00000 0.00000 -1.00000 0.00000 0.00000 1.00000 0.00000 0.00000 -1.00000 0.00000 0.00000 1.00000 0.00000 0.00000 -1.00000 0.00000 -0.96593 0.00000 -0.25882 -0.96593 0.00000 -0.25882 -0.70711 0.00000 -0.70711 -0.70711 0.00000 -0.70711 -0.25882 0.00000 -0.96593 -0.25882 0.00000 -0.96593 0.25882 0.00000 -0.96593 0.25882 0.00000 -0.96593 0.70711 0.00000 -0.70711 0.70711 0.00000 -0.70711 0.96593 0.00000 -0.25882 0.96593 0.00000 -0.25882 0.96593 0.00000 0.25882 0.96593 -0.00000 0.25882 0.70711 0.00000 0.70711 0.70711 -0.00000 0.70711 0.25882 0.00000 0.96593 0.25882 -0.00000 0.96593 -0.25882 0.00000 0.96593 -0.25882 0.00000 0.96593 -0.70711 0.00000 0.70711 -0.70711 0.00000 0.70711 -0.96593 0.00000 0.25882 -0.96593 0.00000 0.25882</float_array><technique_common><accessor source="#wheel-normals-array" count="44" stride="3"><param name="X" type="float" /><param name="Y" type="float" /><param name="Z" type="float" /></accessor></technique_common></source><vertices id="wheel-vertices"><input semantic="POSITION" source="#wheel-positions" /></vertices><triangles material="redmetal" count="44"><input semantic="VERTEX" source="#wheel-vertices" offset="0" /><input semantic="NORMAL" source="#wheel-normals" offset="1" /><p>0 0 2 0 1 0 12 1 13 1 14 1 0 2 3 2 2 2 12 3 14 3 15 3 0 4 4 4 3 4 12 5 15 5 16 5 0 6 5 6 4 6 12 7 16 7 17 7 0 8 6 8 5 8 12 9 17 9 18 9 0 10 7 10 6 10 12 11 18 11 19 11 0 12 8 12 7 12 12 13 19 13 20 13 0 14 9 14 8 14 12 15 20 15 21 15 0 16 10 16 9 16 12 17 21 17 22 17 0 18 11 18 10 18 12 19 22 19 23 19 0 20 1 20 13 20 0 21 13 21 12 21 1 22 2 22 14 22 1 23 14 23 13 23 2 24 3 24 15 24 2 25 15 25 14 25 3 26 4 26 16 26 3 27 16 27 15 27 4 28 5 28 17 28 4 29 17 29 16 29 5 30 6 30 18 30 5 31 18 31 17 31 6 32 7 32 19 32 6 33 19 33 18 33 7 34 8 34 20 34 7 35 20 35 19 35 8 36 9 36 21 36 8 37 21 37 20 37 9 38 10 38 22 38 9 39 22 39 21 39 10 40 11 40 23 40 10 41 23 41 22 41 11 42 0 42 12 42 11 43 12 43 23 43</p></triangles></mesh></geometry></library_geometries><library_visual_scenes><visual_scene id="Scene" name="BoatLift"><node id="BASE_FRAME" name="BASE_FRAME" type="NODE"><node id="BASE_LONG_A" name="BASE_LONG_A" type="NODE"><translate sid="location">0.00000 -1.70000 0.00000</translate><instance_geometry url="#base_beam_x"><bind_material><technique_common><instance_material symbol="redmetal" target="#redmetal" /></technique_common></bind_material></instance_geometry></node><node id="BASE_LONG_B" name="BASE_LONG_B" type="NODE"><translate sid="location">0.00000 1.70000 0.00000</translate><instance_geometry url="#base_beam_x"><bind_material><technique_common><instance_material symbol="redmetal" target="#redmetal" /></technique_common></bind_material></instance_geometry></node><node id="BASE_CROSS_FRONT" name="BASE_CROSS_FRONT" type="NODE"><translate sid="location">-3.60000 0.00000 0.00000</translate><instance_geometry url="#base_beam_y"><bind_material><technique_common><instance_material symbol="redmetal" target="#redmetal" /></technique_common></bind_material></instance_geometry></node><node id="BASE_CROSS_REAR" name="BASE_CROSS_REAR" type="NODE"><translate sid="location">3.60000 0.00000 0.00000</translate><instance_geometry url="#base_beam_y"><bind_material><technique_common><instance_material symbol="redmetal" target="#redmetal" /></technique_common></bind_material></instance_geometry></node><node id="BASE_CROSS_MID" name="BASE_CROSS_MID" type="NODE"><translate sid="location">0.00000 0.00000 0.00000</translate><instance_geometry url="#crossbar"><bind_material><technique_common><instance_material symbol="redmetal" target="#redmetal" /></technique_common></bind_material></instance_geometry></node><node id="WHEEL_-3.0_-1.7" name="WHEEL_-3.0_-1.7" type="NODE"><translate sid="location">-3.00000 -1.70000 -0.32000</translate><rotate sid="rotation">1 0 0 90.00000</rotate><instance_geometry url="#wheel"><bind_material><technique_common><instance_material symbol="redmetal" target="#redmetal" /></technique_common></bind_material></instance_geometry></node><node id="WHEEL_-3.0_1.7" name="WHEEL_-3.0_1.7" type="NODE"><translate sid="location">-3.00000 1.70000 -0.32000</translate><rotate sid="rotation">1 0 0 90.00000</rotate><instance_geometry url="#wheel"><bind_material><technique_common><instance_material symbol="redmetal" target="#redmetal" /></technique_common></bind_material></instance_geometry></node><node id="WHEEL_3.0_-1.7" name="WHEEL_3.0_-1.7" type="NODE"><translate sid="location">3.00000 -1.70000 -0.32000</translate><rotate sid="rotation">1 0 0 90.00000</rotate><instance_geometry url="#wheel"><bind_material><technique_common><instance_material symbol="redmetal" target="#redmetal" /></technique_common></bind_material></instance_geometry></node><node id="WHEEL_3.0_1.7" name="WHEEL_3.0_1.7" type="NODE"><translate sid="location">3.00000 1.70000 -0.32000</translate><rotate sid="rotation">1 0 0 90.00000</rotate><instance_geometry url="#wheel"><bind_material><technique_common><instance_material symbol="redmetal" target="#redmetal" /></technique_common></bind_material></instance_geometry></node></node></visual_scene></library_visual_scenes><scene><instance_visual_scene url="#Scene" /></scene></COLLADA>