<?xml version='1.0' encoding='utf-8'?>
<COLLADA xmlns="http://www.collada.org/2005/11/COLLADASchema" version="1.4.1"><asset><contributor /><created>2026-09-22T00:00:00Z</created><modified>2026-09-22T00:00:00Z</modified><unit name="meter" meter="1" /><up_axis>Z_UP</up_axis></asset><library_materials><material id="redmetal" name="Red Metal"><instance_effect url="#redmetal-effect" /></material></library_materials><library_effects><effect id="redmetal-effect"><profile_COMMON><technique sid="common"><phong><diffuse><color>0.55 0.015 0.015 1</color></diffuse><specular><color>0.12 0.12 0.12 1</color></specular><shininess><float>35</float></shininess></phong></technique></profile_COMMON></effect></library_effects><library_geometries><geometry id="base_beam_x" name="base_beam_x"><mesh><source id="base_beam_x-positions"><float_array id="base_beam_x-positions-array" count="24">-3.80000 -0.19000 -0.20000 3.80000 -0.19000 -0.20000 3.80000 0.19000 -0.20000 -3.80000 0.19000 -0.20000 -3.80000 -0.19000 0.20000 3.80000 -0.19000 0.20000 3.80000 0.19000 0.20000 -3.80000 0.19000 0.20000</float_array><technique_common><accessor source="#base_beam_x-positions-array" count="8" stride="3"><param name="X" type="float" /><param name="Y" type="float" /><param name="Z" type="float" /></accessor></technique_common></source><source id="base_beam_x-normals"><float_array id="base_beam_x-normals-array" count="36">0.00000 0.00000 1.00000 0.00000 0.00000 1.00000 0.00000 0.00000 -1.00000 0.00000 0.00000 -1.00000 0.00000 1.00000 0.00000 0.00000 1.00000 0.00000 -1.00000 0.00000 0.00000 -1.00000 0.00000 0.00000 0.00000 -1.00000 0.00000 0.00000 -1.00000 0.00000 1.00000 0.00000 -0.00000 1.00000 0.00000 0.00000</float_array><technique_common><accessor source="#base_beam_x-normals-array" count="12" stride="3"><param name="X" type="float" /><param name="Y" type="float" /><param name="Z" type="float" /></accessor></technique_common></source><vertices id="base_beam_x-vertices"><input semantic="POSITION" source="#base_beam_x-positions" /></vertices><triangles material="redmetal" count="12"><input semantic="VERTEX" source="#base_beam_x-vertices" offset="0" /><input semantic="NORMAL" source="#base_beam_x-normals" offset="1" /><p>0 0 1 0 2 0 0 1 2 1 3 1 4 2 6 2 5 2 4 3 7 3 6 3 0 4 4 4 5 4 0 5 5 5 1 5 1 6 5 6 6 6 1 7 6 7 2 7 2 8 6 8 7 8 2 9 7 9 3 9 3 10 7 10 4 10 3 11 4 11 0 11</p></triangles></mesh></geometry><geometry id="base_beam_y" name="base_beam_y"><mesh><source id="base_beam_y-positions"><float_array id="base_beam_y-positions-array" count="24">-0.19000 -1.90000 -0.20000 0.19000 -1.90000 -0.20000 0.19000 1.90000 -0.20000 -0.19000 1.90000 -0.20000 -0.19000 -1.90000 0.20000 0.19000 -1.90000 0.20000 0.19000 1.90000 0.20000 -0.19000 1.90000 0.20000</float_array><technique_common><accessor source="#base_beam_y-positions-array" count="8" stride="3"><param name="X" type="float" /><param name="Y" type="float" /><param name="Z" type="float" /></accessor></technique_common></source><source id="base_beam_y-normals"><float_array id="base_beam_y-normals-array" count="36">0.00000 0.00000 1.00000 0.00000 0.00000 1.00000 0.00000 0.00000 -1.00000 0.00000 0.00000 -1.00000 0.00000 1.00000 0.00000 0.00000 1.00000 0.00000 -1.00000 0.00000 0.00000 -1.00000 0.00000 0.00000 0.00000 -1.00000 0.00000 0.00000 -1.00000 0.00000 1.00000 0.00000 -0.00000 1.00000 0.00000 0.00000</float_array><technique_common><accessor source="#base_beam_y-normals-array" count="12" stride="3"><param name="X" type="float" /><param name="Y" type="float" /><param name="Z" type="float" /></accessor></technique_common></source><vertices id="base_beam_y-vertices"><input semantic="POSITION" source="#base_beam_y-positions" /></vertices><triangles material="redmetal" count="12"><input semantic="VERTEX" source="#base_beam_y-vertices" offset="0" /><input semantic="NORMAL" source="#base_beam_y-normals" offset="1" /><p>0 0 1 0 2 0 0 1 2 1 3 1 4 2 6 2 5 2 4 3 7 3 6 3 0 4 4 4 5 4 0 5 5 5 1 5 1 6 5 6 6 6 1 7 6 7 2 7 2 8 6 8 7 8 2 9 7 9 3 9 3 10 7 10 4 10 3 11 4 11 0 11</p></triangles></mesh></geometry><geometry id="crossbar" name="crossbar"><mesh><source id="crossbar-positions"><float_array id="crossbar-positions-array" count="24">-0.19000 -1.90000 -0.20000 0.19000 -1.90000 -0.20000 0.19000 1.90000 -0.20000 -0.19000 1.90000 -0.20000 -0.19000 -1.90000 0.20000 0.19000 -1.90000 0.20000 0.19000 1.90000 0.20000 -0.19000 1.90000 0.20000</float_array><technique_common><accessor source="#crossbar-positions-array" count="8" stride="3"><param name="X" type="float" /><param name="Y" type="float" /><param name="Z" type="float" /></accessor></technique_common></source><source id="crossbar-normals"><float_array id="crossbar-normals-array" count="36">0.00000 0.00000 1.00000 0.00000 0.00000 1.00000 0.00000 0.00000 -1.00000 0.00000 0.00000 -1.00000 0.00000 1.00000 0.00000 0.00000 1.00000 0.00000 -1.00000 0.00000 0.00000 -1.00000 0.00000 0.00000 0.00000 -1.00000 0.00000 0.00000 -1.00000 0.00000 1.00000 0.00000 -0.00000 1.00000 0.00000 0.00000</float_array><technique_common><accessor source="#crossbar-normals-array" count="12" stride="3"><param name="X" type="float" /><param name="Y" type="float" /><param name="Z" type="float" /></accessor></technique_common></source><vertices id="crossbar-vertices"><input semantic="POSITION" source="#crossbar-positions" /></vertices><triangles material="redmetal" count="12"><input semantic="VERTEX" source="#crossbar-vertices" offset="0" /><input semantic="NORMAL" source="#crossbar-normals" offset="1" /><p>0 0 1 0 2 0 0 1 2 1 3 1 4 2 6 2 5 2 4 3 7 3 6 3 0 4 4 4 5 4 0 5 5 5 1 5 1 6 5 6 6 6 1 7 6 7 2 7 2 8 6 8 7 8 2 9 7 9 3 9 3 10 7 10 4 10 3 11 4 11 0 11</p></triangles></mesh></geometry><geometry id="mast" name="mast"><mesh><source id="mast-positions"><float_array id="mast-positions-array" count="24">-0.27500 -0.27500 -9.40000 0.27500 -0.27500 -9.40000 0.27500 0.27500 -9.40000 -0.27500 0.27500 -9.40000 -0.27500 -0.27500 9.40000 0.27500 -0.27500 9.40000 0.27500 0.27500 9.40000 -0.27500 0.27500 9.40000</float_array><technique_common><accessor source="#mast-positions-array" count="8" stride="3"><param name="X" type="float" /><param name="Y" type="float" /><param name="Z" type="float" /></accessor></technique_common></source><source id="mast-normals"><float_array id="mast-normals-array" count="36">0.00000 0.00000 1.00000 0.00000 0.00000 1.00000 0.00000 0.00000 -1.00000 0.00000 0.00000 -1.00000 0.00000 1.00000 0.00000 0.00000 1.00000 0.00000 -1.00000 0.00000 0.00000 -1.00000 0.00000 0.00000 0.00000 -1.00000 0.00000 0.00000 -1.00000 0.00000 1.00000 0.00000 -0.00000 1.00000 0.00000 0.00000</float_array><technique_common><accessor source="#mast-normals-array" count="12" stride="3"><param name="X" type="float" /><param name="Y" type="float" /><param name="Z" type="float" /></accessor></technique_common></source><vertices id="mast-vertices"><input semantic="POSITION" source="#mast-positions" /></vertices><triangles material="redmetal" count="12"><input semantic="VERTEX" source="#mast-vertices" offset="0" /><input semantic="NORMAL" source="#mast-normals" offset="1" /><p>0 0 1 0 2 0 0 1 2 1 3 1 4 2 6 2 5 2 4 3 7 3 6 3 0 4 4 4 5 4 0 5 5 5 1 5 1 6 5 6 6 6 1 7 6 7 2 7 2 8 6 8 7 8 2 9 7 9 3 9 3 10 7 10 4 10 3 11 4 11 0 11</p></triangles></mesh></geometry><geometry id="mast_cap" name="mast_cap"><mesh><source id="mast_cap-positions"><float_array id="mast_cap-positions-array" count="24">-0.40000 -0.40000 -0.17500 0.40000 -0.40000 -0.17500 0.40000 0.40000 -0.17500 -0.40000 0.40000 -0.17500 -0.40000 -0.40000 0.17500 0.40000 -0.40000 0.17500 0.40000 0.40000 0.17500 -0.40000 0.40000 0.17500</float_array><technique_common><accessor source="#mast_cap-positions-array" count="8" stride="3"><param name="X" type="float" /><param name="Y" type="float" /><param name="Z" type="float" /></accessor></technique_common></source><source id="mast_cap-normals"><float_array id="mast_cap-normals-array" count="36">0.00000 0.00000 1.00000 0.00000 0.00000 1.00000 0.00000 0.00000 -1.00000 0.00000 0.00000 -1.00000 0.00000 1.00000 0.00000 0.00000 1.00000 0.00000 -1.00000 0.00000 0.00000 -1.00000 0.00000 0.00000 0.00000 -1.00000 0.00000 0.00000 -1.00000 0.00000 1.00000 0.00000 -0.00000 1.00000 0.00000 0.00000</float_array><technique_common><accessor source="#mast_cap-normals-array" count="12" stride="3"><param name="X" type="float" /><param name="Y" type="float" /><param name="Z" type="float" /></accessor></technique_common></source><vertices id="mast_cap-vertices"><input semantic="POSITION" source="#mast_cap-positions" /></vertices><triangles material="redmetal" count="12"><input semantic="VERTEX" source="#mast_cap-vertices" offset="0" /><input semantic="NORMAL" source="#mast_cap-normals" offset="1" /><p>0 0 1 0 2 0 0 1 2 1 3 1 4 2 6 2 5 2 4 3 7 3 6 3 0 4 4 4 5 4 0 5 5 5 1 5 1 6 5 6 6 6 1 7 6 7 2 7 2 8 6 8 7 8 2 9 7 9 3 9 3 10 7 10 4 10 3 11 4 11 0 11</p></triangles></mesh></geometry><geometry id="brace" name="brace"><mesh><source id="brace-positions"><float_array id="brace-positions-array" count="24">-0.09000 -0.09000 -2.50000 0.09000 -0.09000 -2.50000 0.09000 0.09000 -2.50000 -0.09000 0.09000 -2.50000 -0.09000 -0.09000 2.50000 0.09000 -0.09000 2.50000 0.09000 0.09000 2.50000 -0.09000 0.09000 2.50000</float_array><technique_common><accessor source="#brace-positions-array" count="8" stride="3"><param name="X" type="float" /><param name="Y" type="float" /><param name="Z" type="float" /></accessor></technique_common></source><source id="brace-normals"><float_array id="brace-normals-array" count="36">0.00000 0.00000 1.00000 0.00000 0.00000 1.00000 0.00000 0.00000 -1.00000 0.00000 0.00000 -1.00000 0.00000 1.00000 0.00000 0.00000 1.00000 0.00000 -1.00000 0.00000 0.00000 -1.00000 0.00000 0.00000 0.00000 -1.00000 0.00000 0.00000 -1.00000 0.00000 1.00000 0.00000 -0.00000 1.00000 0.00000 0.00000</float_array><technique_common><accessor source="#brace-normals-array" count="12" stride="3"><param name="X" type="float" /><param name="Y" type="float" /><param name="Z" type="float" /></accessor></technique_common></source><vertices id="brace-vertices"><input semantic="POSITION" source="#brace-positions" /></vertices><triangles material="redmetal" count="12"><input semantic="VERTEX" source="#brace-vertices" offset="0" /><input semantic="NORMAL" source="#brace-normals" offset="1" /><p>0 0 1 0 2 0 0 1 2 1 3 1 4 2 6 2 5 2 4 3 7 3 6 3 0 4 4 4 5 4 0 5 5 5 1 5 1 6 5 6 6 6 1 7 6 7 2 7 2 8 6 8 7 8 2 9 7 9 3 9 3 10 7 10 4 10 3 11 4 11 0 11</p></triangles></mesh></geometry><geometry id="carriage" name="carriage"><mesh><source id="carriage-positions"><float_array id="carriage-positions-array" count="24">-0.50000 -0.47500 -0.60000 0.50000 -0.47500 -0.60000 0.50000 0.47500 -0.60000 -0.50000 0.47500 -0.60000 -0.50000 -0.47500 0.60000 0.50000 -0.47500 0.60000 0.50000 0.47500 0.60000 -0.50000 0.47500 0.60000</float_array><technique_common><accessor source="#carriage-positions-array" count="8" stride="3"><param name="X" type="float" /><param name="Y" type="float" /><param name="Z" type="float" /></accessor></technique_common></source><source id="carriage-normals"><float_array id="carriage-normals-array" count="36">0.00000 0.00000 1.00000 0.00000 0.00000 1.00000 0.00000 0.00000 -1.00000 0.00000 0.00000 -1.00000 0.00000 1.00000 0.00000 0.00000 1.00000 0.00000 -1.00000 0.00000 0.00000 -1.00000 0.00000 0.00000 0.00000 -1.00000 0.00000 0.00000 -1.00000 0.00000 1.00000 0.00000 -0.00000 1.00000 0.00000 0.00000</float_array><technique_common><accessor source="#carriage-normals-array" count="12" stride="3"><param name="X" type="float" /><param name="Y" type="float" /><param name="Z" type="float" /></accessor></technique_common></source><vertices id="carriage-vertices"><input semantic="POSITION" source="#carriage-positions" /></vertices><triangles material="redmetal" count="12"><input semantic="VERTEX" source="#carriage-vertices" offset="0" /><input semantic="NORMAL" source="#carriage-normals" offset="1" /><p>0 0 1 0 2 0 0 1 2 1 3 1 4 2 6 2 5 2 4 3 7 3 6 3 0 4 4 4 5 4 0 5 5 5 1 5 1 6 5 6 6 6 1 7 6 7 2 7 2 8 6 8 7 8 2 9 7 9 3 9 3 10 7 10 4 10 3 11 4 11 0 11</p></triangles></mesh></geometry><geometry id="carriage_rail" name="carriage_rail"><mesh><source id="carriage_rail-positions"><float_array id="carriage_rail-positions-array" count="24">-0.09000 -0.60000 -0.09000 0.09000 -0.60000 -0.09000 0.09000 0.60000 -0.09000 -0.09000 0.60000 -0.09000 -0.09000 -0.60000 0.09000 0.09000 -0.60000 0.09000 0.09000 0.60000 0.09000 -0.09000 0.60000 0.09000</float_array><technique_common><accessor source="#carriage_rail-positions-array" count="8" stride="3"><param name="X" type="float" /><param name="Y" type="float" /><param name="Z" type="float" /></accessor></technique_common></source><source id="carriage_rail-normals"><float_array id="carriage_rail-normals-array" count="36">0.00000 0.00000 1.00000 0.00000 0.00000 1.00000 0.00000 0.00000 -1.00000 0.00000 0.00000 -1.00000 0.00000 1.00000 0.00000 0.00000 1.00000 0.00000 -1.00000 0.00000 0.00000 -1.00000 0.00000 0.00000 0.00000 -1.00000 0.00000 0.00000 -1.00000 0.00000 1.00000 0.00000 -0.00000 1.00000 0.00000 0.00000</float_array><technique_common><accessor source="#carriage_rail-normals-array" count="12" stride="3"><param name="X" type="float" /><param name="Y" type="float" /><param name="Z" type="float" /></accessor></technique_common></source><vertices id="carriage_rail-vertices"><input semantic="POSITION" source="#carriage_rail-positions" /></vertices><triangles material="redmetal" count="12"><input semantic="VERTEX" source="#carriage_rail-vertices" offset="0" /><input semantic="NORMAL" source="#carriage_rail-normals" offset="1" /><p>0 0 1 0 2 0 0 1 2 1 3 1 4 2 6 2 5 2 4 3 7 3 6 3 0 4 4 4 5 4 0 5 5 5 1 5 1 6 5 6 6 6 1 7 6 7 2 7 2 8 6 8 7 8 2 9 7 9 3 9 3 10 7 10 4 10 3 11 4 11 0 11</p></triangles></mesh></geometry><geometry id="head_plate" name="head_plate"><mesh><source id="head_plate-positions"><float_array id="head_plate-positions-array" count="96">0.42000 0.00000 -0.09000 0.38803 0.16073 -0.09000 0.29698 0.29698 -0.09000 0.16073 0.38803 -0.09000 0.00000 0.42000 -0.09000 -0.16073 0.38803 -0.09000 -0.29698 0.29698 -0.09000 -0.38803 0.16073 -0.09000 -0.42000 0.00000 -0.09000 -0.38803 -0.16073 -0.09000 -0.29698 -0.29698 -0.09000 -0.16073 -0.38803 -0.09000 -0.00000 -0.42000 -0.09000 0.16073 -0.38803 -0.09000 0.29698 -0.29698 -0.09000 0.38803 -0.16073 -0.09000 0.42000 0.00000 0.09000 0.38803 0.16073 0.09000 0.29698 0.29698 0.09000 0.16073 0.38803 0.09000 0.00000 0.42000 0.09000 -0.16073 0.38803 0.09000 -0.29698 0.29698 0.09000 -0.38803 0.16073 0.09000 -0.42000 0.00000 0.09000 -0.38803 -0.16073 0.09000 -0.29698 -0.29698 0.09000 -0.16073 -0.38803 0.09000 -0.00000 -0.42000 0.09000 0.16073 -0.38803 0.09000 0.29698 -0.29698 0.09000 0.38803 -0.16073 0.09000</float_array><technique_common><accessor source="#head_plate-positions-array" count="32" stride="3"><param name="X" type="float" /><param name="Y" type="float" /><param name="Z" type="float" /></accessor></technique_common></source><source id="head_plate-normals"><float_array id="head_plate-normals-array" count="180">0.00000 0.00000 -1.00000 0.00000 0.00000 1.00000 0.00000 0.00000 -1.00000 0.00000 0.00000 1.00000 0.00000 0.00000 -1.00000 0.00000 0.00000 1.00000 0.00000 0.00000 -1.00000 0.00000 0.00000 1.00000 0.00000 0.00000 -1.00000 0.00000 0.00000 1.00000 0.00000 0.00000 -1.00000 0.00000 0.00000 1.00000 0.00000 0.00000 -1.00000 0.00000 0.00000 1.00000 -0.00000 0.00000 -1.00000 0.00000 0.00000 1.00000 0.00000 0.00000 -1.00000 0.00000 0.00000 1.00000 0.00000 0.00000 -1.00000 0.00000 0.00000 1.00000 0.00000 0.00000 -1.00000 0.00000 0.00000 1.00000 0.00000 0.00000 -1.00000 0.00000 0.00000 1.00000 0.00000 0.00000 -1.00000 0.00000 0.00000 1.00000 0.00000 0.00000 -1.00000 0.00000 0.00000 1.00000 0.98079 0.19509 0.00000 0.98079 0.19509 -0.00000 0.83147 0.55557 0.00000 0.83147 0.55557 -0.00000 0.55557 0.83147 0.00000 0.55557 0.83147 -0.00000 0.19509 0.98079 0.00000 0.19509 0.98079 -0.00000 -0.19509 0.98079 0.00000 -0.19509 0.98079 0.00000 -0.55557 0.83147 0.00000 -0.55557 0.83147 0.00000 -0.83147 0.55557 0.00000 -0.83147 0.55557 0.00000 -0.98079 0.19509 0.00000 -0.98079 0.19509 0.00000 -0.98079 -0.19509 0.00000 -0.98079 -0.19509 0.00000 -0.83147 -0.55557 0.00000 -0.83147 -0.55557 0.00000 -0.55557 -0.83147 0.00000 -0.55557 -0.83147 0.00000 -0.19509 -0.98079 0.00000 -0.19509 -0.98079 0.00000 0.19509 -0.98079 0.00000 0.19509 -0.98079 0.00000 0.55557 -0.83147 0.00000 0.55557 -0.83147 0.00000 0.83147 -0.55557 0.00000 0.83147 -0.55557 0.00000 0.98079 -0.19509 0.00000 0.98079 -0.19509 0.00000</float_array><technique_common><accessor source="#head_plate-normals-array" count="60" stride="3"><param name="X" type="float" /><param name="Y" type="float" /><param name="Z" type="float" /></accessor></technique_common></source><vertices id="head_plate-vertices"><input semantic="POSITION" source="#head_plate-positions" /></vertices><triangles material="redmetal" count="60"><input semantic="VERTEX" source="#head_plate-vertices" offset="0" /><input semantic="NORMAL" source="#head_plate-normals" offset="1" /><p>0 0 2 0 1 0 16 1 17 1 18 1 0 2 3 2 2 2 16 3 18 3 19 3 0 4 4 4 3 4 16 5 19 5 20 5 0 6 5 6 4 6 16 7 20 7 21 7 0 8 6 8 5 8 16 9 21 9 22 9 0 10 7 10 6 10 16 11 22 11 23 11 0 12 8 12 7 12 16 13 23 13 24 13 0 14 9 14 8 14 16 15 24 15 25 15 0 16 10 16 9 16 16 17 25 17 26 17 0 18 11 18 10 18 16 19 26 19 27 19 0 20 12 20 11 20 16 21 27 21 28 21 0 22 13 22 12 22 16 23 28 23 29 23 0 24 14 24 13 24 16 25 29 25 30 25 0 26 15 26 14 26 16 27 30 27 31 27 0 28 1 28 17 28 0 29 17 29 16 29 1 30 2 30 18 30 1 31 18 31 17 31 2 32 3 32 19 32 2 33 19 33 18 33 3 34 4 34 20 34 3 35 20 35 19 35 4 36 5 36 21 36 4 37 21 37 20 37 5 38 6 38 22 38 5 39 22 39 21 39 6 40 7 40 23 40 6 41 23 41 22 41 7 42 8 42 24 42 7 43 24 43 23 43 8 44 9 44 25 44 8 45 25 45 24 45 9 46 10 46 26 46 9 47 26 47 25 47 10 48 11 48 27 48 10 49 27 49 26 49 11 50 12 50 28 50 11 51 28 51 27 51 12 52 13 52 29 52 12 53 29 53 28 53 13 54 14 54 30 54 13 55 30 55 29 55 14 56 15 56 31 56 14 57 31 57 30 57 15 58 0 58 16 58 15 59 16 59 31 59</p></triangles></mesh></geometry><geometry id="head_arm" name="head_arm"><mesh><source id="head_arm-positions"><float_array id="head_arm-positions-array" count="24">-1.70000 -0.16000 -0.15000 1.70000 -0.16000 -0.15000 1.70000 0.16000 -0.15000 -1.70000 0.16000 -0.15000 -1.70000 -0.16000 0.15000 1.70000 -0.16000 0.15000 1.70000 0.16000 0.15000 -1.70000 0.16000 0.15000</float_array><technique_common><accessor source="#head_arm-positions-array" count="8" stride="3"><param name="X" type="float" /><param name="Y" type="float" /><param name="Z" type="float" /></accessor></technique_common></source><source id="head_arm-normals"><float_array id="head_arm-normals-array" count="36">0.00000 0.00000 1.00000 0.00000 0.00000 1.00000 0.00000 0.00000 -1.00000 0.00000 0.00000 -1.00000 0.00000 1.00000 0.00000 0.00000 1.00000 0.00000 -1.00000 0.00000 0.00000 -1.00000 0.00000 0.00000 0.00000 -1.00000 0.00000 0.00000 -1.00000 0.00000 1.00000 0.00000 -0.00000 1.00000 0.00000 0.00000</float_array><technique_common><accessor source="#head_arm-normals-array" count="12" stride="3"><param name="X" type="float" /><param name="Y" type="float" /><param name="Z" type="float" /></accessor></technique_common></source><vertices id="head_arm-vertices"><input semantic="POSITION" source="#head_arm-positions" /></vertices><triangles material="redmetal" count="12"><input semantic="VERTEX" source="#head_arm-vertices" offset="0" /><input semantic="NORMAL" source="#head_arm-normals" offset="1" /><p>0 0 1 0 2 0 0 1 2 1 3 1 4 2 6 2 5 2 4 3 7 3 6 3 0 4 4 4 5 4 0 5 5 5 1 5 1 6 5 6 6 6 1 7 6 7 2 7 2 8 6 8 7 8 2 9 7 9 3 9 3 10 7 10 4 10 3 11 4 11 0 11</p></triangles></mesh></geometry><geometry id="support_arm" name="support_arm"><mesh><source id="support_arm-positions"><float_array id="support_arm-positions-array" count="24">-0.14000 -1.40000 -0.11000 0.14000 -1.40000 -0.11000 0.14000 1.40000 -0.11000 -0.14000 1.40000 -0.11000 -0.14000 -1.40000 0.11000 0.14000 -1.40000 0.11000 0.14000 1.40000 0.11000 -0.14000 1.40000 0.11000</float_array><technique_common><accessor source="#support_arm-positions-array" count="8" stride="3"><param name="X" type="float" /><param name="Y" type="float" /><param name="Z" type="float" /></accessor></technique_common></source><source id="support_arm-normals"><float_array id="support_arm-normals-array" count="36">0.00000 0.00000 1.00000 0.00000 0.00000 1.00000 0.00000 0.00000 -1.00000 0.00000 0.00000 -1.00000 0.00000 1.00000 0.00000 0.00000 1.00000 0.00000 -1.00000 0.00000 0.00000 -1.00000 0.00000 0.00000 0.00000 -1.00000 0.00000 0.00000 -1.00000 0.00000 1.00000 0.00000 -0.00000 1.00000 0.00000 0.00000</float_array><technique_common><accessor source="#support_arm-normals-array" count="12" stride="3"><param name="X" type="float" /><param name="Y" type="float" /><param name="Z" type="float" /></accessor></technique_common></source><vertices id="support_arm-vertices"><input semantic="POSITION" source="#support_arm-positions" /></vertices><triangles material="redmetal" count="12"><input semantic="VERTEX" source="#support_arm-vertices" offset="0" /><input semantic="NORMAL" source="#support_arm-normals" offset="1" /><p>0 0 1 0 2 0 0 1 2 1 3 1 4 2 6 2 5 2 4 3 7 3 6 3 0 4 4 4 5 4 0 5 5 5 1 5 1 6 5 6 6 6 1 7 6 7 2 7 2 8 6 8 7 8 2 9 7 9 3 9 3 10 7 10 4 10 3 11 4 11 0 11</p></triangles></mesh></geometry><geometry id="support_pad" name="support_pad"><mesh><source id="support_pad-positions"><float_array id="support_pad-positions-array" count="24">-0.27500 -0.22500 -0.09000 0.27500 -0.22500 -0.09000 0.27500 0.22500 -0.09000 -0.27500 0.22500 -0.09000 -0.27500 -0.22500 0.09000 0.27500 -0.22500 0.09000 0.27500 0.22500 0.09000 -0.27500 0.22500 0.09000</float_array><technique_common><accessor source="#support_pad-positions-array" count="8" stride="3"><param name="X" type="float" /><param name="Y" type="float" /><param name="Z" type="float" /></accessor></technique_common></source><source id="support_pad-normals"><float_array id="support_pad-normals-array" count="36">0.00000 0.00000 1.00000 0.00000 0.00000 1.00000 0.00000 0.00000 -1.00000 0.00000 0.00000 -1.00000 0.00000 1.00000 0.00000 0.00000 1.00000 0.00000 -1.00000 0.00000 0.00000 -1.00000 0.00000 0.00000 0.00000 -1.00000 0.00000 0.00000 -1.00000 0.00000 1.00000 0.00000 -0.00000 1.00000 0.00000 0.00000</float_array><technique_common><accessor source="#support_pad-normals-array" count="12" stride="3"><param name="X" type="float" /><param name="Y" type="float" /><param name="Z" type="float" /></accessor></technique_common></source><vertices id="support_pad-vertices"><input semantic="POSITION" source="#support_pad-positions" /></vertices><triangles material="redmetal" count="12"><input semantic="VERTEX" source="#support_pad-vertices" offset="0" /><input semantic="NORMAL" source="#support_pad-normals" offset="1" /><p>0 0 1 0 2 0 0 1 2 1 3 1 4 2 6 2 5 2 4 3 7 3 6 3 0 4 4 4 5 4 0 5 5 5 1 5 1 6 5 6 6 6 1 7 6 7 2 7 2 8 6 8 7 8 2 9 7 9 3 9 3 10 7 10 4 10 3 11 4 11 0 11</p></triangles></mesh></geometry><geometry id="support_bar" name="support_bar"><mesh><source id="support_bar-positions"><float_array id="support_bar-positions-array" count="24">-0.09000 -1.20000 -0.09000 0.09000 -1.20000 -0.09000 0.09000 1.20000 -0.09000 -0.09000 1.20000 -0.09000 -0.09000 -1.20000 0.09000 0.09000 -1.20000 0.09000 0.09000 1.20000 0.09000 -0.09000 1.20000 0.09000</float_array><technique_common><accessor source="#support_bar-positions-array" count="8" stride="3"><param name="X" type="float" /><param name="Y" type="float" /><param name="Z" type="float" /></accessor></technique_common></source><source id="support_bar-normals"><float_array id="support_bar-normals-array" count="36">0.00000 0.00000 1.00000 0.00000 0.00000 1.00000 0.00000 0.00000 -1.00000 0.00000 0.00000 -1.00000 0.00000 1.00000 0.00000 0.00000 1.00000 0.00000 -1.00000 0.00000 0.00000 -1.00000 0.00000 0.00000 0.00000 -1.00000 0.00000 0.00000 -1.00000 0.00000 1.00000 0.00000 -0.00000 1.00000 0.00000 0.00000</float_array><technique_common><accessor source="#support_bar-normals-array" count="12" stride="3"><param name="X" type="float" /><param name="Y" type="float" /><param name="Z" type="float" /></accessor></technique_common></source><vertices id="support_bar-vertices"><input semantic="POSITION" source="#support_bar-positions" /></vertices><triangles material="redmetal" count="12"><input semantic="VERTEX" source="#support_bar-vertices" offset="0" /><input semantic="NORMAL" source="#support_bar-normals" offset="1" /><p>0 0 1 0 2 0 0 1 2 1 3 1 4 2 6 2 5 2 4 3 7 3 6 3 0 4 4 4 5 4 0 5 5 5 1 5 1 6 5 6 6 6 1 7 6 7 2 7 2 8 6 8 7 8 2 9 7 9 3 9 3 10 7 10 4 10 3 11 4 11 0 11</p></triangles></mesh></geometry><geometry id="wheel" name="wheel"><mesh><source id="wheel-positions"><float_array id="wheel-positions-array" count="72">0.20000 -0.27500 0.00000 0.17321 -0.27500 0.10000 0.10000 -0.27500 0.17321 0.00000 -0.27500 0.20000 -0.10000 -0.27500 0.17321 -0.17321 -0.27500 0.10000 -0.20000 -0.27500 0.00000 -0.17321 -0.27500 -0.10000 -0.10000 -0.27500 -0.17321 -0.00000 -0.27500 -0.20000 0.10000 -0.27500 -0.17321 0.17321 -0.27500 -0.10000 0.20000 0.27500 0.00000 0.17321 0.27500 0.10000 0.10000 0.27500 0.17321 0.00000 0.27500 0.20000 -0.10000 0.27500 0.17321 -0.17321 0.27500 0.10000 -0.20000 0.27500 0.00000 -0.17321 0.27500 -0.10000 -0.10000 0.27500 -0.17321 -0.00000 0.27500 -0.20000 0.10000 0.27500 -0.17321 0.17321 0.27500 -0.10000</float_array><technique_common><accessor source="#wheel-positions-array" count="24" stride="3"><param name="X" type="float" /><param name="Y" type="float" /><param name="Z" type="float" /></accessor></technique_common></source><source id="wheel-normals"><float_array id="wheel-normals-array" count="132">0.00000 1.00000 0.00000 0.00000 -1.00000 0.00000 0.00000 1.00000 0.00000 0.00000 -1.00000 0.00000 0.00000 1.00000 0.00000 0.00000 -1.00000 0.00000 0.00000 1.00000 0.00000 0.00000 -1.00000 0.00000 0.00000 1.00000 0.00000 0.00000 -1.00000 0.00000 0.00000 1.00000 0.00000 -0.00000 -1.00000 0.00000 0.00000 1.00000 0.00000 0.00000 -1.00000 0.00000 0.00000 1.00000 0.00000 0.00000 -1.00000 0.00000 0.00000 1.00000 0.00000 0.00000 -1.00000 0.00000 0.00000 1.00000 0.00000 0.00000 -1.00000 0.00000 -0.96593 0.00000 -0.25882 -0.96593 0.00000 -0.25882 -0.70711 0.00000 -0.70711 -0.70711 0.00000 -0.70711 -0.25882 0.00000 -0.96593 -0.25882 0.00000 -0.96593 0.25882 0.00000 -0.96593 0.25882 0.00000 -0.96593 0.70711 0.00000 -0.70711 0.70711 0.00000 -0.70711 0.96593 0.00000 -0.25882 0.96593 0.00000 -0.25882 0.96593 0.00000 0.25882 0.96593 -0.00000 0.25882 0.70711 0.00000 0.70711 0.70711 -0.00000 0.70711 0.25882 0.00000 0.96593 0.25882 -0.00000 0.96593 -0.25882 0.00000 0.96593 -0.25882 0.00000 0.96593 -0.70711 0.00000 0.70711 -0.70711 0.00000 0.70711 -0.96593 0.00000 0.25882 -0.96593 0.00000 0.25882</float_array><technique_common><accessor source="#wheel-normals-array" count="44" stride="3"><param name="X" type="float" /><param name="Y" type="float" /><param name="Z" type="float" /></accessor></technique_common></source><vertices id="wheel-vertices"><input semantic="POSITION" source="#wheel-positions" /></vertices><triangles material="redmetal" count="44"><input semantic="VERTEX" source="#wheel-vertices" offset="0" /><input semantic="NORMAL" source="#wheel-normals" offset="1" /><p>0 0 2 0 1 0 12 1 13 1 14 1 0 2 3 2 2 2 12 3 14 3 15 3 0 4 4 4 3 4 12 5 15 5 16 5 0 6 5 6 4 6 12 7 16 7 17 7 0 8 6 8 5 8 12 9 17 9 18 9 0 10 7 10 6 10 12 11 18 11 19 11 0 12 8 12 7 12 12 13 19 13 20 13 0 14 9 14 8 14 12 15 20 15 21 15 0 16 10 16 9 16 12 17 21 17 22 17 0 18 11 18 10 18 12 19 22 19 23 19 0 20 1 20 13 20 0 21 13 21 12 21 1 22 2 22 14 22 1 23 14 23 13 23 2 24 3 24 15 24 2 25 15 25 14 25 3 26 4 26 16 26 3 27 16 27 15 27 4 28 5 28 17 28 4 29 17 29 16 29 5 30 6 30 18 30 5 31 18 31 17 31 6 32 7 32 19 32 6 33 19 33 18 33 7 34 8 34 20 34 7 35 20 35 19 35 8 36 9 36 21 36 8 37 21 37 20 37 9 38 10 38 22 38 9 39 22 39 21 39 10 40 11 40 23 40 10 41 23 41 22 41 11 42 0 42 12 42 11 43 12 43 23 43</p></triangles></mesh></geometry><geometry id="rail" name="rail"><mesh><source id="rail-positions"><float_array id="rail-positions-array" count="24">-0.09000 -0.09000 -0.06000 0.09000 -0.09000 -0.06000 0.09000 0.09000 -0.06000 -0.09000 0.09000 -0.06000 -0.09000 -0.09000 0.06000 0.09000 -0.09000 0.06000 0.09000 0.09000 0.06000 -0.09000 0.09000 0.06000</float_array><technique_common><accessor source="#rail-positions-array" count="8" stride="3"><param name="X" type="float" /><param name="Y" type="float" /><param name="Z" type="float" /></accessor></technique_common></source><source id="rail-normals"><float_array id="rail-normals-array" count="36">0.00000 0.00000 1.00000 0.00000 0.00000 1.00000 0.00000 0.00000 -1.00000 0.00000 0.00000 -1.00000 0.00000 1.00000 0.00000 0.00000 1.00000 0.00000 -1.00000 0.00000 0.00000 -1.00000 0.00000 0.00000 0.00000 -1.00000 0.00000 0.00000 -1.00000 0.00000 1.00000 0.00000 -0.00000 1.00000 0.00000 0.00000</float_array><technique_common><accessor source="#rail-normals-array" count="12" stride="3"><param name="X" type="float" /><param name="Y" type="float" /><param name="Z" type="float" /></accessor></technique_common></source><vertices id="rail-vertices"><input semantic="POSITION" source="#rail-positions" /></vertices><triangles material="redmetal" count="12"><input semantic="VERTEX" source="#rail-vertices" offset="0" /><input semantic="NORMAL" source="#rail-normals" offset="1" /><p>0 0 1 0 2 0 0 1 2 1 3 1 4 2 6 2 5 2 4 3 7 3 6 3 0 4 4 4 5 4 0 5 5 5 1 5 1 6 5 6 6 6 1 7 6 7 2 7 2 8 6 8 7 8 2 9 7 9 3 9 3 10 7 10 4 10 3 11 4 11 0 11</p></triangles></mesh></geometry><geometry id="safety_bar" name="safety_bar"><mesh><source id="safety_bar-positions"><float_array id="safety_bar-positions-array" count="24">-0.04000 -0.90000 -0.04000 0.04000 -0.90000 -0.04000 0.04000 0.90000 -0.04000 -0.04000 0.90000 -0.04000 -0.04000 -0.90000 0.04000 0.04000 -0.90000 0.04000 0.04000 0.90000 0.04000 -0.04000 0.90000 0.04000</float_array><technique_common><accessor source="#safety_bar-positions-array" count="8" stride="3"><param name="X" type="float" /><param name="Y" type="float" /><param name="Z" type="float" /></accessor></technique_common></source><source id="safety_bar-normals"><float_array id="safety_bar-normals-array" count="36">0.00000 0.00000 1.00000 0.00000 0.00000 1.00000 0.00000 0.00000 -1.00000 0.00000 0.00000 -1.00000 0.00000 1.00000 0.00000 0.00000 1.00000 0.00000 -1.00000 0.00000 0.00000 -1.00000 0.00000 0.00000 0.00000 -1.00000 0.00000 0.00000 -1.00000 0.00000 1.00000 0.00000 -0.00000 1.00000 0.00000 0.00000</float_array><technique_common><accessor source="#safety_bar-normals-array" count="12" stride="3"><param name="X" type="float" /><param name="Y" type="float" /><param name="Z" type="float" /></accessor></technique_common></source><vertices id="safety_bar-vertices"><input semantic="POSITION" source="#safety_bar-positions" /></vertices><triangles material="redmetal" count="12"><input semantic="VERTEX" source="#safety_bar-vertices" offset="0" /><input semantic="NORMAL" source="#safety_bar-normals" offset="1" /><p>0 0 1 0 2 0 0 1 2 1 3 1 4 2 6 2 5 2 4 3 7 3 6 3 0 4 4 4 5 4 0 5 5 5 1 5 1 6 5 6 6 6 1 7 6 7 2 7 2 8 6 8 7 8 2 9 7 9 3 9 3 10 7 10 4 10 3 11 4 11 0 11</p></triangles></mesh></geometry></library_geometries><library_visual_scenes><visual_scene id="Scene" name="BoatLift"><node id="BASE_FRAME" name="BASE_FRAME" type="NODE"><translate sid="location">0.00000 0.00000 0.45000</translate><node id="BASE_LONG_A" name="BASE_LONG_A" type="NODE"><translate sid="location">0.00000 -1.70000 0.00000</translate><instance_geometry url="#base_beam_x"><bind_material><technique_common><instance_material symbol="redmetal" target="#redmetal" /></technique_common></bind_material></instance_geometry></node><node id="BASE_LONG_B" name="BASE_LONG_B" type="NODE"><translate sid="location">0.00000 1.70000 0.00000</translate><instance_geometry url="#base_beam_x"><bind_material><technique_common><instance_material symbol="redmetal" target="#redmetal" /></technique_common></bind_material></instance_geometry></node><node id="BASE_CROSS_FRONT" name="BASE_CROSS_FRONT" type="NODE"><translate sid="location">-3.60000 0.00000 0.00000</translate><instance_geometry url="#base_beam_y"><bind_material><technique_common><instance_material symbol="redmetal" target="#redmetal" /></technique_common></bind_material></instance_geometry></node><node id="BASE_CROSS_REAR" name="BASE_CROSS_REAR" type="NODE"><translate sid="location">3.60000 0.00000 0.00000</translate><instance_geometry url="#base_beam_y"><bind_material><technique_common><instance_material symbol="redmetal" target="#redmetal" /></technique_common></bind_material></instance_geometry></node><node id="BASE_CROSS_MID" name="BASE_CROSS_MID" type="NODE"><translate sid="location">0.00000 0.00000 0.00000</translate><instance_geometry url="#crossbar"><bind_material><technique_common><instance_material symbol="redmetal" target="#redmetal" /></technique_common></bind_material></instance_geometry></node><node id="WHEEL_-3.0_-1.7" name="WHEEL_-3.0_-1.7" type="NODE"><translate sid="location">-3.00000 -1.70000 -0.32000</translate><rotate sid="rotation">1 0 0 90.00000</rotate><instance_geometry url="#wheel"><bind_material><technique_common><instance_material symbol="redmetal" target="#redmetal" /></technique_common></bind_material></instance_geometry></node><node id="WHEEL_-3.0_1.7" name="WHEEL_-3.0_1.7" type="NODE"><translate sid="location">-3.00000 1.70000 -0.32000</translate><rotate sid="rotation">1 0 0 90.00000</rotate><instance_geometry url="#wheel"><bind_material><technique_common><instance_material symbol="redmetal" target="#redmetal" /></technique_common></bind_material></instance_geometry></node><node id="WHEEL_3.0_-1.7" name="WHEEL_3.0_-1.7" type="NODE"><translate sid="location">3.00000 -1.70000 -0.32000</translate><rotate sid="rotation">1 0 0 90.00000</rotate><instance_geometry url="#wheel"><bind_material><technique_common><instance_material symbol="redmetal" target="#redmetal" /></technique_common></bind_material></instance_geometry></node><node id="WHEEL_3.0_1.7" name="WHEEL_3.0_1.7" type="NODE"><translate sid="location">3.00000 1.70000 -0.32000</translate><rotate sid="rotation">1 0 0 90.00000</rotate><instance_geometry url="#wheel"><bind_material><technique_common><instance_material symbol="redmetal" target="#redmetal" /></technique_common></bind_material></instance_geometry></node></node><node id="VERTICAL_MAST" name="VERTICAL_MAST" type="NODE"><translate sid="location">0.00000 0.00000 9.85000</translate><instance_geometry url="#mast"><bind_material><technique_common><instance_material symbol="redmetal" target="#redmetal" /></technique_common></bind_material></instance_geometry></node><node id="MAST_CAP" name="MAST_CAP" type="NODE"><translate sid="location">0.00000 0.00000 19.35000</translate><instance_geometry url="#mast_cap"><bind_material><technique_common><instance_material symbol="redmetal" target="#redmetal" /></technique_common></bind_material></instance_geometry></node><node id="VERTICAL_CARRIAGE" name="VERTICAL_CARRIAGE" type="NODE"><translate sid="location">0.00000 0.00000 8.00000</translate><node id="CARRIAGE_BODY" name="CARRIAGE_BODY" type="NODE"><instance_geometry url="#carriage"><bind_material><technique_common><instance_material symbol="redmetal" target="#redmetal" /></technique_common></bind_material></instance_geometry></node><node id="CARRIAGE_RAIL_L" name="CARRIAGE_RAIL_L" type="NODE"><translate sid="location">0.00000 -0.60000 0.00000</translate><instance_geometry url="#carriage_rail"><bind_material><technique_common><instance_material symbol="redmetal" target="#redmetal" /></technique_common></bind_material></instance_geometry></node><node id="CARRIAGE_RAIL_R" name="CARRIAGE_RAIL_R" type="NODE"><translate sid="location">0.00000 0.60000 0.00000</translate><instance_geometry url="#carriage_rail"><bind_material><technique_common><instance_material symbol="redmetal" target="#redmetal" /></technique_common></bind_material></instance_geometry></node><node id="ROTATING_HEAD" name="ROTATING_HEAD" type="NODE"><translate sid="location">0.00000 0.00000 0.00000</translate><node id="ROTATION_PLATE" name="ROTATION_PLATE" type="NODE"><translate sid="location">0.00000 0.00000 -0.68000</translate><instance_geometry url="#head_plate"><bind_material><technique_common><instance_material symbol="redmetal" target="#redmetal" /></technique_common></bind_material></instance_geometry></node><node id="HEAD_ARM" name="HEAD_ARM" type="NODE"><translate sid="location">1.55000 0.00000 -0.68000</translate><instance_geometry url="#head_arm"><bind_material><technique_common><instance_material symbol="redmetal" target="#redmetal" /></technique_common></bind_material></instance_geometry></node><node id="CRADLE_0.55" name="CRADLE_0.55" type="NODE"><translate sid="location">0.55000 0.00000 -1.00000</translate><instance_geometry url="#support_arm"><bind_material><technique_common><instance_material symbol="redmetal" target="#redmetal" /></technique_common></bind_material></instance_geometry><node id="PAD_A_0.55" name="PAD_A_0.55" type="NODE"><translate sid="location">0.00000 -1.05000 -0.18000</translate><instance_geometry url="#support_pad"><bind_material><technique_common><instance_material symbol="redmetal" target="#redmetal" /></technique_common></bind_material></instance_geometry></node><node id="PAD_B_0.55" name="PAD_B_0.55" type="NODE"><translate sid="location">0.00000 1.05000 -0.18000</translate><instance_geometry url="#support_pad"><bind_material><technique_common><instance_material symbol="redmetal" target="#redmetal" /></technique_common></bind_material></instance_geometry></node></node><node id="CRADLE_2.55" name="CRADLE_2.55" type="NODE"><translate sid="location">2.55000 0.00000 -1.00000</translate><instance_geometry url="#support_arm"><bind_material><technique_common><instance_material symbol="redmetal" target="#redmetal" /></technique_common></bind_material></instance_geometry><node id="PAD_A_2.55" name="PAD_A_2.55" type="NODE"><translate sid="location">0.00000 -1.05000 -0.18000</translate><instance_geometry url="#support_pad"><bind_material><technique_common><instance_material symbol="redmetal" target="#redmetal" /></technique_common></bind_material></instance_geometry></node><node id="PAD_B_2.55" name="PAD_B_2.55" type="NODE"><translate sid="location">0.00000 1.05000 -0.18000</translate><instance_geometry url="#support_pad"><bind_material><technique_common><instance_material symbol="redmetal" target="#redmetal" /></technique_common></bind_material></instance_geometry></node></node><node id="SAFETY_BAR" name="SAFETY_BAR" type="NODE"><translate sid="location">1.80000 0.00000 -0.65000</translate><instance_geometry url="#safety_bar"><bind_material><technique_common><instance_material symbol="redmetal" target="#redmetal" /></technique_common></bind_material></instance_geometry></node></node></node></visual_scene></library_visual_scenes><scene><instance_visual_scene url="#Scene" /></scene></COLLADA>