<?xml version='1.0' encoding='utf-8'?>
<COLLADA xmlns="http://www.collada.org/2005/11/COLLADASchema" version="1.4.1"><asset><contributor /><created>2026-09-22T00:00:00Z</created><modified>2026-09-22T00:00:00Z</modified><unit name="meter" meter="1" /><up_axis>Z_UP</up_axis></asset><library_materials><material id="redmetal" name="Red Metal"><instance_effect url="#redmetal-effect" /></material></library_materials><library_effects><effect id="redmetal-effect"><profile_COMMON><technique sid="common"><phong><diffuse><color>0.55 0.015 0.015 1</color></diffuse><specular><color>0.12 0.12 0.12 1</color></specular><shininess><float>35</float></shininess></phong></technique></profile_COMMON></effect></library_effects><library_geometries><geometry id="carriage" name="carriage"><mesh><source id="carriage-positions"><float_array id="carriage-positions-array" count="24">-0.50000 -0.47500 -0.60000 0.50000 -0.47500 -0.60000 0.50000 0.47500 -0.60000 -0.50000 0.47500 -0.60000 -0.50000 -0.47500 0.60000 0.50000 -0.47500 0.60000 0.50000 0.47500 0.60000 -0.50000 0.47500 0.60000</float_array><technique_common><accessor source="#carriage-positions-array" count="8" stride="3"><param name="X" type="float" /><param name="Y" type="float" /><param name="Z" type="float" /></accessor></technique_common></source><source id="carriage-normals"><float_array id="carriage-normals-array" count="36">0.00000 0.00000 1.00000 0.00000 0.00000 1.00000 0.00000 0.00000 -1.00000 0.00000 0.00000 -1.00000 0.00000 1.00000 0.00000 0.00000 1.00000 0.00000 -1.00000 0.00000 0.00000 -1.00000 0.00000 0.00000 0.00000 -1.00000 0.00000 0.00000 -1.00000 0.00000 1.00000 0.00000 -0.00000 1.00000 0.00000 0.00000</float_array><technique_common><accessor source="#carriage-normals-array" count="12" stride="3"><param name="X" type="float" /><param name="Y" type="float" /><param name="Z" type="float" /></accessor></technique_common></source><vertices id="carriage-vertices"><input semantic="POSITION" source="#carriage-positions" /></vertices><triangles material="redmetal" count="12"><input semantic="VERTEX" source="#carriage-vertices" offset="0" /><input semantic="NORMAL" source="#carriage-normals" offset="1" /><p>0 0 1 0 2 0 0 1 2 1 3 1 4 2 6 2 5 2 4 3 7 3 6 3 0 4 4 4 5 4 0 5 5 5 1 5 1 6 5 6 6 6 1 7 6 7 2 7 2 8 6 8 7 8 2 9 7 9 3 9 3 10 7 10 4 10 3 11 4 11 0 11</p></triangles></mesh></geometry><geometry id="carriage_rail" name="carriage_rail"><mesh><source id="carriage_rail-positions"><float_array id="carriage_rail-positions-array" count="24">-0.09000 -0.60000 -0.09000 0.09000 -0.60000 -0.09000 0.09000 0.60000 -0.09000 -0.09000 0.60000 -0.09000 -0.09000 -0.60000 0.09000 0.09000 -0.60000 0.09000 0.09000 0.60000 0.09000 -0.09000 0.60000 0.09000</float_array><technique_common><accessor source="#carriage_rail-positions-array" count="8" stride="3"><param name="X" type="float" /><param name="Y" type="float" /><param name="Z" type="float" /></accessor></technique_common></source><source id="carriage_rail-normals"><float_array id="carriage_rail-normals-array" count="36">0.00000 0.00000 1.00000 0.00000 0.00000 1.00000 0.00000 0.00000 -1.00000 0.00000 0.00000 -1.00000 0.00000 1.00000 0.00000 0.00000 1.00000 0.00000 -1.00000 0.00000 0.00000 -1.00000 0.00000 0.00000 0.00000 -1.00000 0.00000 0.00000 -1.00000 0.00000 1.00000 0.00000 -0.00000 1.00000 0.00000 0.00000</float_array><technique_common><accessor source="#carriage_rail-normals-array" count="12" stride="3"><param name="X" type="float" /><param name="Y" type="float" /><param name="Z" type="float" /></accessor></technique_common></source><vertices id="carriage_rail-vertices"><input semantic="POSITION" source="#carriage_rail-positions" /></vertices><triangles material="redmetal" count="12"><input semantic="VERTEX" source="#carriage_rail-vertices" offset="0" /><input semantic="NORMAL" source="#carriage_rail-normals" offset="1" /><p>0 0 1 0 2 0 0 1 2 1 3 1 4 2 6 2 5 2 4 3 7 3 6 3 0 4 4 4 5 4 0 5 5 5 1 5 1 6 5 6 6 6 1 7 6 7 2 7 2 8 6 8 7 8 2 9 7 9 3 9 3 10 7 10 4 10 3 11 4 11 0 11</p></triangles></mesh></geometry></library_geometries><library_visual_scenes><visual_scene id="Scene" name="BoatLift"><node id="VERTICAL_CARRIAGE" name="VERTICAL_CARRIAGE" type="NODE"><node id="CARRIAGE_BODY" name="CARRIAGE_BODY" type="NODE"><instance_geometry url="#carriage"><bind_material><technique_common><instance_material symbol="redmetal" target="#redmetal" /></technique_common></bind_material></instance_geometry></node><node id="CARRIAGE_RAIL_L" name="CARRIAGE_RAIL_L" type="NODE"><translate sid="location">0.00000 -0.60000 0.00000</translate><instance_geometry url="#carriage_rail"><bind_material><technique_common><instance_material symbol="redmetal" target="#redmetal" /></technique_common></bind_material></instance_geometry></node><node id="CARRIAGE_RAIL_R" name="CARRIAGE_RAIL_R" type="NODE"><translate sid="location">0.00000 0.60000 0.00000</translate><instance_geometry url="#carriage_rail"><bind_material><technique_common><instance_material symbol="redmetal" target="#redmetal" /></technique_common></bind_material></instance_geometry></node></node></visual_scene></library_visual_scenes><scene><instance_visual_scene url="#Scene" /></scene></COLLADA>