<?xml version='1.0' encoding='utf-8'?>
<COLLADA xmlns="http://www.collada.org/2005/11/COLLADASchema" version="1.4.1"><asset><contributor /><created>2026-09-22T00:00:00Z</created><modified>2026-09-22T00:00:00Z</modified><unit name="meter" meter="1" /><up_axis>Z_UP</up_axis></asset><library_materials><material id="redmetal" name="Red Metal"><instance_effect url="#redmetal-effect" /></material></library_materials><library_effects><effect id="redmetal-effect"><profile_COMMON><technique sid="common"><phong><diffuse><color>0.55 0.015 0.015 1</color></diffuse><specular><color>0.12 0.12 0.12 1</color></specular><shininess><float>35</float></shininess></phong></technique></profile_COMMON></effect></library_effects><library_geometries><geometry id="head_plate" name="head_plate"><mesh><source id="head_plate-positions"><float_array id="head_plate-positions-array" count="96">0.42000 0.00000 -0.09000 0.38803 0.16073 -0.09000 0.29698 0.29698 -0.09000 0.16073 0.38803 -0.09000 0.00000 0.42000 -0.09000 -0.16073 0.38803 -0.09000 -0.29698 0.29698 -0.09000 -0.38803 0.16073 -0.09000 -0.42000 0.00000 -0.09000 -0.38803 -0.16073 -0.09000 -0.29698 -0.29698 -0.09000 -0.16073 -0.38803 -0.09000 -0.00000 -0.42000 -0.09000 0.16073 -0.38803 -0.09000 0.29698 -0.29698 -0.09000 0.38803 -0.16073 -0.09000 0.42000 0.00000 0.09000 0.38803 0.16073 0.09000 0.29698 0.29698 0.09000 0.16073 0.38803 0.09000 0.00000 0.42000 0.09000 -0.16073 0.38803 0.09000 -0.29698 0.29698 0.09000 -0.38803 0.16073 0.09000 -0.42000 0.00000 0.09000 -0.38803 -0.16073 0.09000 -0.29698 -0.29698 0.09000 -0.16073 -0.38803 0.09000 -0.00000 -0.42000 0.09000 0.16073 -0.38803 0.09000 0.29698 -0.29698 0.09000 0.38803 -0.16073 0.09000</float_array><technique_common><accessor source="#head_plate-positions-array" count="32" stride="3"><param name="X" type="float" /><param name="Y" type="float" /><param name="Z" type="float" /></accessor></technique_common></source><source id="head_plate-normals"><float_array id="head_plate-normals-array" count="180">0.00000 0.00000 -1.00000 0.00000 0.00000 1.00000 0.00000 0.00000 -1.00000 0.00000 0.00000 1.00000 0.00000 0.00000 -1.00000 0.00000 0.00000 1.00000 0.00000 0.00000 -1.00000 0.00000 0.00000 1.00000 0.00000 0.00000 -1.00000 0.00000 0.00000 1.00000 0.00000 0.00000 -1.00000 0.00000 0.00000 1.00000 0.00000 0.00000 -1.00000 0.00000 0.00000 1.00000 -0.00000 0.00000 -1.00000 0.00000 0.00000 1.00000 0.00000 0.00000 -1.00000 0.00000 0.00000 1.00000 0.00000 0.00000 -1.00000 0.00000 0.00000 1.00000 0.00000 0.00000 -1.00000 0.00000 0.00000 1.00000 0.00000 0.00000 -1.00000 0.00000 0.00000 1.00000 0.00000 0.00000 -1.00000 0.00000 0.00000 1.00000 0.00000 0.00000 -1.00000 0.00000 0.00000 1.00000 0.98079 0.19509 0.00000 0.98079 0.19509 -0.00000 0.83147 0.55557 0.00000 0.83147 0.55557 -0.00000 0.55557 0.83147 0.00000 0.55557 0.83147 -0.00000 0.19509 0.98079 0.00000 0.19509 0.98079 -0.00000 -0.19509 0.98079 0.00000 -0.19509 0.98079 0.00000 -0.55557 0.83147 0.00000 -0.55557 0.83147 0.00000 -0.83147 0.55557 0.00000 -0.83147 0.55557 0.00000 -0.98079 0.19509 0.00000 -0.98079 0.19509 0.00000 -0.98079 -0.19509 0.00000 -0.98079 -0.19509 0.00000 -0.83147 -0.55557 0.00000 -0.83147 -0.55557 0.00000 -0.55557 -0.83147 0.00000 -0.55557 -0.83147 0.00000 -0.19509 -0.98079 0.00000 -0.19509 -0.98079 0.00000 0.19509 -0.98079 0.00000 0.19509 -0.98079 0.00000 0.55557 -0.83147 0.00000 0.55557 -0.83147 0.00000 0.83147 -0.55557 0.00000 0.83147 -0.55557 0.00000 0.98079 -0.19509 0.00000 0.98079 -0.19509 0.00000</float_array><technique_common><accessor source="#head_plate-normals-array" count="60" stride="3"><param name="X" type="float" /><param name="Y" type="float" /><param name="Z" type="float" /></accessor></technique_common></source><vertices id="head_plate-vertices"><input semantic="POSITION" source="#head_plate-positions" /></vertices><triangles material="redmetal" count="60"><input semantic="VERTEX" source="#head_plate-vertices" offset="0" /><input semantic="NORMAL" source="#head_plate-normals" offset="1" /><p>0 0 2 0 1 0 16 1 17 1 18 1 0 2 3 2 2 2 16 3 18 3 19 3 0 4 4 4 3 4 16 5 19 5 20 5 0 6 5 6 4 6 16 7 20 7 21 7 0 8 6 8 5 8 16 9 21 9 22 9 0 10 7 10 6 10 16 11 22 11 23 11 0 12 8 12 7 12 16 13 23 13 24 13 0 14 9 14 8 14 16 15 24 15 25 15 0 16 10 16 9 16 16 17 25 17 26 17 0 18 11 18 10 18 16 19 26 19 27 19 0 20 12 20 11 20 16 21 27 21 28 21 0 22 13 22 12 22 16 23 28 23 29 23 0 24 14 24 13 24 16 25 29 25 30 25 0 26 15 26 14 26 16 27 30 27 31 27 0 28 1 28 17 28 0 29 17 29 16 29 1 30 2 30 18 30 1 31 18 31 17 31 2 32 3 32 19 32 2 33 19 33 18 33 3 34 4 34 20 34 3 35 20 35 19 35 4 36 5 36 21 36 4 37 21 37 20 37 5 38 6 38 22 38 5 39 22 39 21 39 6 40 7 40 23 40 6 41 23 41 22 41 7 42 8 42 24 42 7 43 24 43 23 43 8 44 9 44 25 44 8 45 25 45 24 45 9 46 10 46 26 46 9 47 26 47 25 47 10 48 11 48 27 48 10 49 27 49 26 49 11 50 12 50 28 50 11 51 28 51 27 51 12 52 13 52 29 52 12 53 29 53 28 53 13 54 14 54 30 54 13 55 30 55 29 55 14 56 15 56 31 56 14 57 31 57 30 57 15 58 0 58 16 58 15 59 16 59 31 59</p></triangles></mesh></geometry><geometry id="head_arm" name="head_arm"><mesh><source id="head_arm-positions"><float_array id="head_arm-positions-array" count="24">-1.70000 -0.16000 -0.15000 1.70000 -0.16000 -0.15000 1.70000 0.16000 -0.15000 -1.70000 0.16000 -0.15000 -1.70000 -0.16000 0.15000 1.70000 -0.16000 0.15000 1.70000 0.16000 0.15000 -1.70000 0.16000 0.15000</float_array><technique_common><accessor source="#head_arm-positions-array" count="8" stride="3"><param name="X" type="float" /><param name="Y" type="float" /><param name="Z" type="float" /></accessor></technique_common></source><source id="head_arm-normals"><float_array id="head_arm-normals-array" count="36">0.00000 0.00000 1.00000 0.00000 0.00000 1.00000 0.00000 0.00000 -1.00000 0.00000 0.00000 -1.00000 0.00000 1.00000 0.00000 0.00000 1.00000 0.00000 -1.00000 0.00000 0.00000 -1.00000 0.00000 0.00000 0.00000 -1.00000 0.00000 0.00000 -1.00000 0.00000 1.00000 0.00000 -0.00000 1.00000 0.00000 0.00000</float_array><technique_common><accessor source="#head_arm-normals-array" count="12" stride="3"><param name="X" type="float" /><param name="Y" type="float" /><param name="Z" type="float" /></accessor></technique_common></source><vertices id="head_arm-vertices"><input semantic="POSITION" source="#head_arm-positions" /></vertices><triangles material="redmetal" count="12"><input semantic="VERTEX" source="#head_arm-vertices" offset="0" /><input semantic="NORMAL" source="#head_arm-normals" offset="1" /><p>0 0 1 0 2 0 0 1 2 1 3 1 4 2 6 2 5 2 4 3 7 3 6 3 0 4 4 4 5 4 0 5 5 5 1 5 1 6 5 6 6 6 1 7 6 7 2 7 2 8 6 8 7 8 2 9 7 9 3 9 3 10 7 10 4 10 3 11 4 11 0 11</p></triangles></mesh></geometry><geometry id="support_arm" name="support_arm"><mesh><source id="support_arm-positions"><float_array id="support_arm-positions-array" count="24">-0.14000 -1.40000 -0.11000 0.14000 -1.40000 -0.11000 0.14000 1.40000 -0.11000 -0.14000 1.40000 -0.11000 -0.14000 -1.40000 0.11000 0.14000 -1.40000 0.11000 0.14000 1.40000 0.11000 -0.14000 1.40000 0.11000</float_array><technique_common><accessor source="#support_arm-positions-array" count="8" stride="3"><param name="X" type="float" /><param name="Y" type="float" /><param name="Z" type="float" /></accessor></technique_common></source><source id="support_arm-normals"><float_array id="support_arm-normals-array" count="36">0.00000 0.00000 1.00000 0.00000 0.00000 1.00000 0.00000 0.00000 -1.00000 0.00000 0.00000 -1.00000 0.00000 1.00000 0.00000 0.00000 1.00000 0.00000 -1.00000 0.00000 0.00000 -1.00000 0.00000 0.00000 0.00000 -1.00000 0.00000 0.00000 -1.00000 0.00000 1.00000 0.00000 -0.00000 1.00000 0.00000 0.00000</float_array><technique_common><accessor source="#support_arm-normals-array" count="12" stride="3"><param name="X" type="float" /><param name="Y" type="float" /><param name="Z" type="float" /></accessor></technique_common></source><vertices id="support_arm-vertices"><input semantic="POSITION" source="#support_arm-positions" /></vertices><triangles material="redmetal" count="12"><input semantic="VERTEX" source="#support_arm-vertices" offset="0" /><input semantic="NORMAL" source="#support_arm-normals" offset="1" /><p>0 0 1 0 2 0 0 1 2 1 3 1 4 2 6 2 5 2 4 3 7 3 6 3 0 4 4 4 5 4 0 5 5 5 1 5 1 6 5 6 6 6 1 7 6 7 2 7 2 8 6 8 7 8 2 9 7 9 3 9 3 10 7 10 4 10 3 11 4 11 0 11</p></triangles></mesh></geometry><geometry id="support_pad" name="support_pad"><mesh><source id="support_pad-positions"><float_array id="support_pad-positions-array" count="24">-0.27500 -0.22500 -0.09000 0.27500 -0.22500 -0.09000 0.27500 0.22500 -0.09000 -0.27500 0.22500 -0.09000 -0.27500 -0.22500 0.09000 0.27500 -0.22500 0.09000 0.27500 0.22500 0.09000 -0.27500 0.22500 0.09000</float_array><technique_common><accessor source="#support_pad-positions-array" count="8" stride="3"><param name="X" type="float" /><param name="Y" type="float" /><param name="Z" type="float" /></accessor></technique_common></source><source id="support_pad-normals"><float_array id="support_pad-normals-array" count="36">0.00000 0.00000 1.00000 0.00000 0.00000 1.00000 0.00000 0.00000 -1.00000 0.00000 0.00000 -1.00000 0.00000 1.00000 0.00000 0.00000 1.00000 0.00000 -1.00000 0.00000 0.00000 -1.00000 0.00000 0.00000 0.00000 -1.00000 0.00000 0.00000 -1.00000 0.00000 1.00000 0.00000 -0.00000 1.00000 0.00000 0.00000</float_array><technique_common><accessor source="#support_pad-normals-array" count="12" stride="3"><param name="X" type="float" /><param name="Y" type="float" /><param name="Z" type="float" /></accessor></technique_common></source><vertices id="support_pad-vertices"><input semantic="POSITION" source="#support_pad-positions" /></vertices><triangles material="redmetal" count="12"><input semantic="VERTEX" source="#support_pad-vertices" offset="0" /><input semantic="NORMAL" source="#support_pad-normals" offset="1" /><p>0 0 1 0 2 0 0 1 2 1 3 1 4 2 6 2 5 2 4 3 7 3 6 3 0 4 4 4 5 4 0 5 5 5 1 5 1 6 5 6 6 6 1 7 6 7 2 7 2 8 6 8 7 8 2 9 7 9 3 9 3 10 7 10 4 10 3 11 4 11 0 11</p></triangles></mesh></geometry><geometry id="safety_bar" name="safety_bar"><mesh><source id="safety_bar-positions"><float_array id="safety_bar-positions-array" count="24">-0.04000 -0.90000 -0.04000 0.04000 -0.90000 -0.04000 0.04000 0.90000 -0.04000 -0.04000 0.90000 -0.04000 -0.04000 -0.90000 0.04000 0.04000 -0.90000 0.04000 0.04000 0.90000 0.04000 -0.04000 0.90000 0.04000</float_array><technique_common><accessor source="#safety_bar-positions-array" count="8" stride="3"><param name="X" type="float" /><param name="Y" type="float" /><param name="Z" type="float" /></accessor></technique_common></source><source id="safety_bar-normals"><float_array id="safety_bar-normals-array" count="36">0.00000 0.00000 1.00000 0.00000 0.00000 1.00000 0.00000 0.00000 -1.00000 0.00000 0.00000 -1.00000 0.00000 1.00000 0.00000 0.00000 1.00000 0.00000 -1.00000 0.00000 0.00000 -1.00000 0.00000 0.00000 0.00000 -1.00000 0.00000 0.00000 -1.00000 0.00000 1.00000 0.00000 -0.00000 1.00000 0.00000 0.00000</float_array><technique_common><accessor source="#safety_bar-normals-array" count="12" stride="3"><param name="X" type="float" /><param name="Y" type="float" /><param name="Z" type="float" /></accessor></technique_common></source><vertices id="safety_bar-vertices"><input semantic="POSITION" source="#safety_bar-positions" /></vertices><triangles material="redmetal" count="12"><input semantic="VERTEX" source="#safety_bar-vertices" offset="0" /><input semantic="NORMAL" source="#safety_bar-normals" offset="1" /><p>0 0 1 0 2 0 0 1 2 1 3 1 4 2 6 2 5 2 4 3 7 3 6 3 0 4 4 4 5 4 0 5 5 5 1 5 1 6 5 6 6 6 1 7 6 7 2 7 2 8 6 8 7 8 2 9 7 9 3 9 3 10 7 10 4 10 3 11 4 11 0 11</p></triangles></mesh></geometry></library_geometries><library_visual_scenes><visual_scene id="Scene" name="BoatLift"><node id="ROTATING_HEAD" name="ROTATING_HEAD" type="NODE"><node id="ROTATION_PLATE" name="ROTATION_PLATE" type="NODE"><translate sid="location">0.00000 0.00000 -0.68000</translate><instance_geometry url="#head_plate"><bind_material><technique_common><instance_material symbol="redmetal" target="#redmetal" /></technique_common></bind_material></instance_geometry></node><node id="HEAD_ARM" name="HEAD_ARM" type="NODE"><translate sid="location">1.55000 0.00000 -0.68000</translate><instance_geometry url="#head_arm"><bind_material><technique_common><instance_material symbol="redmetal" target="#redmetal" /></technique_common></bind_material></instance_geometry></node><node id="CRADLE_0.55" name="CRADLE_0.55" type="NODE"><translate sid="location">0.55000 0.00000 -1.00000</translate><instance_geometry url="#support_arm"><bind_material><technique_common><instance_material symbol="redmetal" target="#redmetal" /></technique_common></bind_material></instance_geometry><node id="PAD_A_0.55" name="PAD_A_0.55" type="NODE"><translate sid="location">0.00000 -1.05000 -0.18000</translate><instance_geometry url="#support_pad"><bind_material><technique_common><instance_material symbol="redmetal" target="#redmetal" /></technique_common></bind_material></instance_geometry></node><node id="PAD_B_0.55" name="PAD_B_0.55" type="NODE"><translate sid="location">0.00000 1.05000 -0.18000</translate><instance_geometry url="#support_pad"><bind_material><technique_common><instance_material symbol="redmetal" target="#redmetal" /></technique_common></bind_material></instance_geometry></node></node><node id="CRADLE_2.55" name="CRADLE_2.55" type="NODE"><translate sid="location">2.55000 0.00000 -1.00000</translate><instance_geometry url="#support_arm"><bind_material><technique_common><instance_material symbol="redmetal" target="#redmetal" /></technique_common></bind_material></instance_geometry><node id="PAD_A_2.55" name="PAD_A_2.55" type="NODE"><translate sid="location">0.00000 -1.05000 -0.18000</translate><instance_geometry url="#support_pad"><bind_material><technique_common><instance_material symbol="redmetal" target="#redmetal" /></technique_common></bind_material></instance_geometry></node><node id="PAD_B_2.55" name="PAD_B_2.55" type="NODE"><translate sid="location">0.00000 1.05000 -0.18000</translate><instance_geometry url="#support_pad"><bind_material><technique_common><instance_material symbol="redmetal" target="#redmetal" /></technique_common></bind_material></instance_geometry></node></node><node id="SAFETY_BAR" name="SAFETY_BAR" type="NODE"><translate sid="location">1.80000 0.00000 -0.65000</translate><instance_geometry url="#safety_bar"><bind_material><technique_common><instance_material symbol="redmetal" target="#redmetal" /></technique_common></bind_material></instance_geometry></node></node></visual_scene></library_visual_scenes><scene><instance_visual_scene url="#Scene" /></scene></COLLADA>